<svg id="visual" viewBox="0 0 960 300" width="960" height="300" xmlns="http://www.w3.org/2000/svg" xmlns:xlink="http://www.w3.org/1999/xlink" version="1.1"><rect x="0" y="0" width="960" height="300" fill="#001220"></rect><path d="M0 132L22.8 136.3C45.7 140.7 91.3 149.3 137 144C182.7 138.7 228.3 119.3 274 121.8C319.7 124.3 365.3 148.7 411.2 151.7C457 154.7 503 136.3 548.8 124.2C594.7 112 640.3 106 686 113.5C731.7 121 777.3 142 823 153.3C868.7 164.7 914.3 166.3 937.2 167.2L960 168L960 301L937.2 301C914.3 301 868.7 301 823 301C777.3 301 731.7 301 686 301C640.3 301 594.7 301 548.8 301C503 301 457 301 411.2 301C365.3 301 319.7 301 274 301C228.3 301 182.7 301 137 301C91.3 301 45.7 301 22.8 301L0 301Z" fill="#fcaf3c"></path><path d="M0 165L22.8 170.8C45.7 176.7 91.3 188.3 137 186.7C182.7 185 228.3 170 274 159.7C319.7 149.3 365.3 143.7 411.2 149C457 154.3 503 170.7 548.8 180.3C594.7 190 640.3 193 686 186C731.7 179 777.3 162 823 162.3C868.7 162.7 914.3 180.3 937.2 189.2L960 198L960 301L937.2 301C914.3 301 868.7 301 823 301C777.3 301 731.7 301 686 301C640.3 301 594.7 301 548.8 301C503 301 457 301 411.2 301C365.3 301 319.7 301 274 301C228.3 301 182.7 301 137 301C91.3 301 45.7 301 22.8 301L0 301Z" fill="#fba230"></path><path d="M0 186L22.8 187.8C45.7 189.7 91.3 193.3 137 192.5C182.7 191.7 228.3 186.3 274 183C319.7 179.7 365.3 178.3 411.2 179.7C457 181 503 185 548.8 185.5C594.7 186 640.3 183 686 187.7C731.7 192.3 777.3 204.7 823 210.5C868.7 216.3 914.3 215.7 937.2 215.3L960 215L960 301L937.2 301C914.3 301 868.7 301 823 301C777.3 301 731.7 301 686 301C640.3 301 594.7 301 548.8 301C503 301 457 301 411.2 301C365.3 301 319.7 301 274 301C228.3 301 182.7 301 137 301C91.3 301 45.7 301 22.8 301L0 301Z" fill="#fa9424"></path><path d="M0 232L22.8 235.5C45.7 239 91.3 246 137 243.2C182.7 240.3 228.3 227.7 274 227.5C319.7 227.3 365.3 239.7 411.2 243.2C457 246.7 503 241.3 548.8 235C594.7 228.7 640.3 221.3 686 219.2C731.7 217 777.3 220 823 222.5C868.7 225 914.3 227 937.2 228L960 229L960 301L937.2 301C914.3 301 868.7 301 823 301C777.3 301 731.7 301 686 301C640.3 301 594.7 301 548.8 301C503 301 457 301 411.2 301C365.3 301 319.7 301 274 301C228.3 301 182.7 301 137 301C91.3 301 45.7 301 22.8 301L0 301Z" fill="#f98619"></path><path d="M0 260L22.8 257.7C45.7 255.3 91.3 250.7 137 249.2C182.7 247.7 228.3 249.3 274 248.5C319.7 247.7 365.3 244.3 411.2 243.7C457 243 503 245 548.8 246.5C594.7 248 640.3 249 686 249.8C731.7 250.7 777.3 251.3 823 252.3C868.7 253.3 914.3 254.7 937.2 255.3L960 256L960 301L937.2 301C914.3 301 868.7 301 823 301C777.3 301 731.7 301 686 301C640.3 301 594.7 301 548.8 301C503 301 457 301 411.2 301C365.3 301 319.7 301 274 301C228.3 301 182.7 301 137 301C91.3 301 45.7 301 22.8 301L0 301Z" fill="#f7770f"></path></svg>