<svg id="visual" viewBox="0 0 960 250" width="960" height="250" xmlns="http://www.w3.org/2000/svg" xmlns:xlink="http://www.w3.org/1999/xlink" version="1.1"><rect x="0" y="0" width="960" height="250" fill="#001220"></rect><path d="M0 158L22.8 160C45.7 162 91.3 166 137 165.7C182.7 165.3 228.3 160.7 274 158.5C319.7 156.3 365.3 156.7 411.2 161.5C457 166.3 503 175.7 548.8 177.8C594.7 180 640.3 175 686 170.3C731.7 165.7 777.3 161.3 823 160.7C868.7 160 914.3 163 937.2 164.5L960 166L960 251L937.2 251C914.3 251 868.7 251 823 251C777.3 251 731.7 251 686 251C640.3 251 594.7 251 548.8 251C503 251 457 251 411.2 251C365.3 251 319.7 251 274 251C228.3 251 182.7 251 137 251C91.3 251 45.7 251 22.8 251L0 251Z" fill="#f7770f"></path><path d="M0 172L22.8 173.3C45.7 174.7 91.3 177.3 137 181.2C182.7 185 228.3 190 274 189.5C319.7 189 365.3 183 411.2 178.7C457 174.3 503 171.7 548.8 172.2C594.7 172.7 640.3 176.3 686 175.5C731.7 174.7 777.3 169.3 823 170.7C868.7 172 914.3 180 937.2 184L960 188L960 251L937.2 251C914.3 251 868.7 251 823 251C777.3 251 731.7 251 686 251C640.3 251 594.7 251 548.8 251C503 251 457 251 411.2 251C365.3 251 319.7 251 274 251C228.3 251 182.7 251 137 251C91.3 251 45.7 251 22.8 251L0 251Z" fill="#f98619"></path><path d="M0 191L22.8 194.2C45.7 197.3 91.3 203.7 137 203.7C182.7 203.7 228.3 197.3 274 196.3C319.7 195.3 365.3 199.7 411.2 198.2C457 196.7 503 189.3 548.8 187.5C594.7 185.7 640.3 189.3 686 191.2C731.7 193 777.3 193 823 194.8C868.7 196.7 914.3 200.3 937.2 202.2L960 204L960 251L937.2 251C914.3 251 868.7 251 823 251C777.3 251 731.7 251 686 251C640.3 251 594.7 251 548.8 251C503 251 457 251 411.2 251C365.3 251 319.7 251 274 251C228.3 251 182.7 251 137 251C91.3 251 45.7 251 22.8 251L0 251Z" fill="#fa9424"></path><path d="M0 220L22.8 220.8C45.7 221.7 91.3 223.3 137 223C182.7 222.7 228.3 220.3 274 216.3C319.7 212.3 365.3 206.7 411.2 204.8C457 203 503 205 548.8 208C594.7 211 640.3 215 686 215.8C731.7 216.7 777.3 214.3 823 214.8C868.7 215.3 914.3 218.7 937.2 220.3L960 222L960 251L937.2 251C914.3 251 868.7 251 823 251C777.3 251 731.7 251 686 251C640.3 251 594.7 251 548.8 251C503 251 457 251 411.2 251C365.3 251 319.7 251 274 251C228.3 251 182.7 251 137 251C91.3 251 45.7 251 22.8 251L0 251Z" fill="#fba230"></path><path d="M0 231L22.8 230.8C45.7 230.7 91.3 230.3 137 228.8C182.7 227.3 228.3 224.7 274 223C319.7 221.3 365.3 220.7 411.2 221.2C457 221.7 503 223.3 548.8 223.3C594.7 223.3 640.3 221.7 686 223.3C731.7 225 777.3 230 823 232.3C868.7 234.7 914.3 234.3 937.2 234.2L960 234L960 251L937.2 251C914.3 251 868.7 251 823 251C777.3 251 731.7 251 686 251C640.3 251 594.7 251 548.8 251C503 251 457 251 411.2 251C365.3 251 319.7 251 274 251C228.3 251 182.7 251 137 251C91.3 251 45.7 251 22.8 251L0 251Z" fill="#fcaf3c"></path></svg>