<svg id="visual" viewBox="0 0 900 100" width="900" height="100" xmlns="http://www.w3.org/2000/svg" xmlns:xlink="http://www.w3.org/1999/xlink" version="1.1"><rect x="0" y="0" width="900" height="100" fill="#001220"></rect><path d="M0 63L21.5 63.8C43 64.7 86 66.3 128.8 66.2C171.7 66 214.3 64 257.2 63C300 62 343 62 385.8 63.8C428.7 65.7 471.3 69.3 514.2 70.2C557 71 600 69 642.8 67.2C685.7 65.3 728.3 63.7 771.2 63.5C814 63.3 857 64.7 878.5 65.3L900 66L900 101L878.5 101C857 101 814 101 771.2 101C728.3 101 685.7 101 642.8 101C600 101 557 101 514.2 101C471.3 101 428.7 101 385.8 101C343 101 300 101 257.2 101C214.3 101 171.7 101 128.8 101C86 101 43 101 21.5 101L0 101Z" fill="#f7770f"></path><path d="M0 68L21.5 68.5C43 69 86 70 128.8 71.7C171.7 73.3 214.3 75.7 257.2 75.5C300 75.3 343 72.7 385.8 70.8C428.7 69 471.3 68 514.2 68.2C557 68.3 600 69.7 642.8 69.3C685.7 69 728.3 67 771.2 67.7C814 68.3 857 71.7 878.5 73.3L900 75L900 101L878.5 101C857 101 814 101 771.2 101C728.3 101 685.7 101 642.8 101C600 101 557 101 514.2 101C471.3 101 428.7 101 385.8 101C343 101 300 101 257.2 101C214.3 101 171.7 101 128.8 101C86 101 43 101 21.5 101L0 101Z" fill="#f98619"></path><path d="M0 76L21.5 77.3C43 78.7 86 81.3 128.8 81.3C171.7 81.3 214.3 78.7 257.2 78.2C300 77.7 343 79.3 385.8 78.7C428.7 78 471.3 75 514.2 74.3C557 73.7 600 75.3 642.8 76C685.7 76.7 728.3 76.3 771.2 77C814 77.7 857 79.3 878.5 80.2L900 81L900 101L878.5 101C857 101 814 101 771.2 101C728.3 101 685.7 101 642.8 101C600 101 557 101 514.2 101C471.3 101 428.7 101 385.8 101C343 101 300 101 257.2 101C214.3 101 171.7 101 128.8 101C86 101 43 101 21.5 101L0 101Z" fill="#fa9424"></path><path d="M0 87L21.5 87.3C43 87.7 86 88.3 128.8 88.3C171.7 88.3 214.3 87.7 257.2 86.2C300 84.7 343 82.3 385.8 81.5C428.7 80.7 471.3 81.3 514.2 82.5C557 83.7 600 85.3 642.8 85.7C685.7 86 728.3 85 771.2 85.2C814 85.3 857 86.7 878.5 87.3L900 88L900 101L878.5 101C857 101 814 101 771.2 101C728.3 101 685.7 101 642.8 101C600 101 557 101 514.2 101C471.3 101 428.7 101 385.8 101C343 101 300 101 257.2 101C214.3 101 171.7 101 128.8 101C86 101 43 101 21.5 101L0 101Z" fill="#fba230"></path><path d="M0 92L21.5 91.8C43 91.7 86 91.3 128.8 90.7C171.7 90 214.3 89 257.2 88.3C300 87.7 343 87.3 385.8 87.5C428.7 87.7 471.3 88.3 514.2 88.3C557 88.3 600 87.7 642.8 88.3C685.7 89 728.3 91 771.2 92C814 93 857 93 878.5 93L900 93L900 101L878.5 101C857 101 814 101 771.2 101C728.3 101 685.7 101 642.8 101C600 101 557 101 514.2 101C471.3 101 428.7 101 385.8 101C343 101 300 101 257.2 101C214.3 101 171.7 101 128.8 101C86 101 43 101 21.5 101L0 101Z" fill="#fcaf3c"></path></svg>