<svg id="visual" viewBox="0 0 960 500" width="960" height="500" xmlns="http://www.w3.org/2000/svg" xmlns:xlink="http://www.w3.org/1999/xlink" version="1.1"><rect x="0" y="0" width="960" height="500" fill="#001220"></rect><path d="M0 332L20 330.5C40 329 80 326 120 327.8C160 329.7 200 336.3 240 336.2C280 336 320 329 360 333C400 337 440 352 480 348.3C520 344.7 560 322.3 600 313.3C640 304.3 680 308.7 720 310C760 311.3 800 309.7 840 317.5C880 325.3 920 342.7 940 351.3L960 360L960 501L940 501C920 501 880 501 840 501C800 501 760 501 720 501C680 501 640 501 600 501C560 501 520 501 480 501C440 501 400 501 360 501C320 501 280 501 240 501C200 501 160 501 120 501C80 501 40 501 20 501L0 501Z" fill="#f7770f"></path><path d="M0 351L20 356.2C40 361.3 80 371.7 120 370.3C160 369 200 356 240 355.2C280 354.3 320 365.7 360 375.3C400 385 440 393 480 393C520 393 560 385 600 379.3C640 373.7 680 370.3 720 363C760 355.7 800 344.3 840 339.8C880 335.3 920 337.7 940 338.8L960 340L960 501L940 501C920 501 880 501 840 501C800 501 760 501 720 501C680 501 640 501 600 501C560 501 520 501 480 501C440 501 400 501 360 501C320 501 280 501 240 501C200 501 160 501 120 501C80 501 40 501 20 501L0 501Z" fill="#f98619"></path><path d="M0 409L20 407.3C40 405.7 80 402.3 120 395.3C160 388.3 200 377.7 240 383.2C280 388.7 320 410.3 360 414.2C400 418 440 404 480 403.3C520 402.7 560 415.3 600 419.7C640 424 680 420 720 414.5C760 409 800 402 840 404.2C880 406.3 920 417.7 940 423.3L960 429L960 501L940 501C920 501 880 501 840 501C800 501 760 501 720 501C680 501 640 501 600 501C560 501 520 501 480 501C440 501 400 501 360 501C320 501 280 501 240 501C200 501 160 501 120 501C80 501 40 501 20 501L0 501Z" fill="#fa9424"></path><path d="M0 435L20 437C40 439 80 443 120 443C160 443 200 439 240 435.8C280 432.7 320 430.3 360 425.3C400 420.3 440 412.7 480 411.7C520 410.7 560 416.3 600 420.5C640 424.7 680 427.3 720 432.2C760 437 800 444 840 446C880 448 920 445 940 443.5L960 442L960 501L940 501C920 501 880 501 840 501C800 501 760 501 720 501C680 501 640 501 600 501C560 501 520 501 480 501C440 501 400 501 360 501C320 501 280 501 240 501C200 501 160 501 120 501C80 501 40 501 20 501L0 501Z" fill="#fba230"></path><path d="M0 447L20 447C40 447 80 447 120 447.5C160 448 200 449 240 453.2C280 457.3 320 464.7 360 465.8C400 467 440 462 480 460C520 458 560 459 600 458.5C640 458 680 456 720 457.2C760 458.3 800 462.7 840 465C880 467.3 920 467.7 940 467.8L960 468L960 501L940 501C920 501 880 501 840 501C800 501 760 501 720 501C680 501 640 501 600 501C560 501 520 501 480 501C440 501 400 501 360 501C320 501 280 501 240 501C200 501 160 501 120 501C80 501 40 501 20 501L0 501Z" fill="#fcaf3c"></path></svg>