<svg id="visual" viewBox="0 0 900 200" width="900" height="200" xmlns="http://www.w3.org/2000/svg" xmlns:xlink="http://www.w3.org/1999/xlink" version="1.1"><rect x="0" y="0" width="900" height="200" fill="#001220"></rect><path d="M0 126L21.5 127.7C43 129.3 86 132.7 128.8 132.5C171.7 132.3 214.3 128.7 257.2 127C300 125.3 343 125.7 385.8 129.5C428.7 133.3 471.3 140.7 514.2 142.2C557 143.7 600 139.3 642.8 135.5C685.7 131.7 728.3 128.3 771.2 128C814 127.7 857 130.3 878.5 131.7L900 133L900 201L878.5 201C857 201 814 201 771.2 201C728.3 201 685.7 201 642.8 201C600 201 557 201 514.2 201C471.3 201 428.7 201 385.8 201C343 201 300 201 257.2 201C214.3 201 171.7 201 128.8 201C86 201 43 201 21.5 201L0 201Z" fill="#f7770f"></path><path d="M0 137L21.5 138.2C43 139.3 86 141.7 128.8 144.8C171.7 148 214.3 152 257.2 151.7C300 151.3 343 146.7 385.8 143.2C428.7 139.7 471.3 137.3 514.2 137.7C557 138 600 141 642.8 140.3C685.7 139.7 728.3 135.3 771.2 136.3C814 137.3 857 143.7 878.5 146.8L900 150L900 201L878.5 201C857 201 814 201 771.2 201C728.3 201 685.7 201 642.8 201C600 201 557 201 514.2 201C471.3 201 428.7 201 385.8 201C343 201 300 201 257.2 201C214.3 201 171.7 201 128.8 201C86 201 43 201 21.5 201L0 201Z" fill="#f98619"></path><path d="M0 153L21.5 155.5C43 158 86 163 128.8 163C171.7 163 214.3 158 257.2 157.2C300 156.3 343 159.7 385.8 158.3C428.7 157 471.3 151 514.2 149.5C557 148 600 151 642.8 152.5C685.7 154 728.3 154 771.2 155.5C814 157 857 160 878.5 161.5L900 163L900 201L878.5 201C857 201 814 201 771.2 201C728.3 201 685.7 201 642.8 201C600 201 557 201 514.2 201C471.3 201 428.7 201 385.8 201C343 201 300 201 257.2 201C214.3 201 171.7 201 128.8 201C86 201 43 201 21.5 201L0 201Z" fill="#fa9424"></path><path d="M0 175L21.5 175.8C43 176.7 86 178.3 128.8 178.2C171.7 178 214.3 176 257.2 172.7C300 169.3 343 164.7 385.8 163.3C428.7 162 471.3 164 514.2 166.5C557 169 600 172 642.8 172.5C685.7 173 728.3 171 771.2 171.3C814 171.7 857 174.3 878.5 175.7L900 177L900 201L878.5 201C857 201 814 201 771.2 201C728.3 201 685.7 201 642.8 201C600 201 557 201 514.2 201C471.3 201 428.7 201 385.8 201C343 201 300 201 257.2 201C214.3 201 171.7 201 128.8 201C86 201 43 201 21.5 201L0 201Z" fill="#fba230"></path><path d="M0 185L21.5 184.8C43 184.7 86 184.3 128.8 183C171.7 181.7 214.3 179.3 257.2 177.8C300 176.3 343 175.7 385.8 176C428.7 176.3 471.3 177.7 514.2 177.8C557 178 600 177 642.8 178.3C685.7 179.7 728.3 183.3 771.2 185.2C814 187 857 187 878.5 187L900 187L900 201L878.5 201C857 201 814 201 771.2 201C728.3 201 685.7 201 642.8 201C600 201 557 201 514.2 201C471.3 201 428.7 201 385.8 201C343 201 300 201 257.2 201C214.3 201 171.7 201 128.8 201C86 201 43 201 21.5 201L0 201Z" fill="#fcaf3c"></path></svg>