<svg id="visual" viewBox="0 0 960 210" width="960" height="210" xmlns="http://www.w3.org/2000/svg" xmlns:xlink="http://www.w3.org/1999/xlink" version="1.1"><rect x="0" y="0" width="960" height="210" fill="#001220"></rect><path d="M0 139L20 138.3C40 137.7 80 136.3 120 137.2C160 138 200 141 240 141C280 141 320 138 360 139.7C400 141.3 440 147.7 480 146C520 144.3 560 134.7 600 130.8C640 127 680 129 720 129.7C760 130.3 800 129.7 840 133C880 136.3 920 143.7 940 147.3L960 151L960 211L940 211C920 211 880 211 840 211C800 211 760 211 720 211C680 211 640 211 600 211C560 211 520 211 480 211C440 211 400 211 360 211C320 211 280 211 240 211C200 211 160 211 120 211C80 211 40 211 20 211L0 211Z" fill="#f7770f"></path><path d="M0 147L20 149.2C40 151.3 80 155.7 120 155C160 154.3 200 148.7 240 148.3C280 148 320 153 360 157.2C400 161.3 440 164.7 480 164.7C520 164.7 560 161.3 600 158.8C640 156.3 680 154.7 720 151.5C760 148.3 800 143.7 840 141.8C880 140 920 141 940 141.5L960 142L960 211L940 211C920 211 880 211 840 211C800 211 760 211 720 211C680 211 640 211 600 211C560 211 520 211 480 211C440 211 400 211 360 211C320 211 280 211 240 211C200 211 160 211 120 211C80 211 40 211 20 211L0 211Z" fill="#f98619"></path><path d="M0 171L20 170.3C40 169.7 80 168.3 120 165.3C160 162.3 200 157.7 240 160C280 162.3 320 171.7 360 173.3C400 175 440 169 480 168.7C520 168.3 560 173.7 600 175.5C640 177.3 680 175.7 720 173.3C760 171 800 168 840 169C880 170 920 175 940 177.5L960 180L960 211L940 211C920 211 880 211 840 211C800 211 760 211 720 211C680 211 640 211 600 211C560 211 520 211 480 211C440 211 400 211 360 211C320 211 280 211 240 211C200 211 160 211 120 211C80 211 40 211 20 211L0 211Z" fill="#fa9424"></path><path d="M0 182L20 182.8C40 183.7 80 185.3 120 185.3C160 185.3 200 183.7 240 182.3C280 181 320 180 360 178C400 176 440 173 480 172.7C520 172.3 560 174.7 600 176.3C640 178 680 179 720 181C760 183 800 186 840 186.8C880 187.7 920 186.3 940 185.7L960 185L960 211L940 211C920 211 880 211 840 211C800 211 760 211 720 211C680 211 640 211 600 211C560 211 520 211 480 211C440 211 400 211 360 211C320 211 280 211 240 211C200 211 160 211 120 211C80 211 40 211 20 211L0 211Z" fill="#fba230"></path><path d="M0 187L20 187C40 187 80 187 120 187.3C160 187.7 200 188.3 240 190C280 191.7 320 194.3 360 194.7C400 195 440 193 480 192.3C520 191.7 560 192.3 600 192.2C640 192 680 191 720 191.5C760 192 800 194 840 195C880 196 920 196 940 196L960 196L960 211L940 211C920 211 880 211 840 211C800 211 760 211 720 211C680 211 640 211 600 211C560 211 520 211 480 211C440 211 400 211 360 211C320 211 280 211 240 211C200 211 160 211 120 211C80 211 40 211 20 211L0 211Z" fill="#fcaf3c"></path></svg>